<?xml version="1.0" standalone="no"?>
<!DOCTYPE svg PUBLIC "-//W3C//DTD SVG 20010904//EN"
 "http://www.w3.org/TR/2001/REC-SVG-20010904/DTD/svg10.dtd">
<svg version="1.0" xmlns="http://www.w3.org/2000/svg"
 width="814.000000pt" height="806.000000pt" viewBox="0 0 814.000000 806.000000"
 preserveAspectRatio="xMidYMid meet">

<g transform="translate(0.000000,806.000000) scale(0.100000,-0.100000)"
fill="#000000" stroke="none">
<path d="M3840 7663 c-358 -26 -685 -123 -955 -284 -480 -286 -833 -758 -970
-1298 -60 -238 -58 -200 -63 -1376 -2 -594 0 -1109 3 -1143 11 -107 -9 -102
370 -102 l326 0 24 24 23 23 5 1044 c5 1073 8 1175 47 1349 82 369 342 696
685 864 187 92 337 131 548 142 275 15 544 -46 752 -168 201 -119 347 -270
497 -517 95 -157 63 -145 426 -149 354 -4 386 -1 409 34 16 25 15 31 -21 137
-117 347 -343 681 -615 908 -433 364 -975 550 -1491 512z"/>
<path d="M3790 6385 c-177 -40 -330 -130 -460 -272 -153 -167 -215 -347 -203
-586 7 -133 32 -230 89 -347 41 -82 61 -108 148 -195 108 -108 182 -154 316
-200 146 -50 354 -58 495 -20 259 69 479 274 566 528 118 346 2 723 -290 940
-67 50 -216 120 -301 141 -92 24 -278 30 -360 11z"/>
<path d="M6059 2881 c-65 -66 -20 -171 73 -171 99 0 141 112 66 175 -43 36
-100 35 -139 -4z"/>
<path d="M1632 2433 l3 -408 68 -3 67 -3 0 121 0 120 93 0 c293 1 409 79 411
280 1 92 -17 156 -56 204 -64 78 -135 96 -391 96 l-197 0 2 -407z m422 262
c61 -30 78 -62 77 -134 -1 -83 -22 -125 -75 -151 -36 -17 -62 -20 -164 -20
l-122 0 0 166 0 166 123 -4 c97 -3 130 -7 161 -23z"/>
<path d="M3780 2430 l0 -410 95 0 95 0 0 253 1 252 22 -26 c12 -14 99 -128
192 -252 l170 -226 93 -1 92 0 0 410 0 410 -90 0 -90 0 -2 -261 -3 -261 -198
261 -198 261 -90 0 -89 0 0 -410z"/>
<path d="M4940 2659 c-66 -9 -160 -43 -191 -68 l-22 -17 37 -56 38 -56 50 26
c36 19 71 28 118 30 59 4 69 1 92 -19 14 -13 29 -36 32 -51 l6 -28 -93 0
c-161 0 -253 -36 -288 -114 -57 -126 18 -258 164 -288 71 -15 135 -1 190 43
l37 30 0 -36 0 -35 80 0 80 0 0 235 c0 260 -4 282 -62 342 -51 53 -162 78
-268 62z m150 -405 c0 -27 -7 -43 -31 -65 -26 -25 -39 -29 -85 -29 -63 0 -94
23 -94 69 0 47 30 61 127 61 l83 0 0 -36z"/>
<path d="M5612 2659 c-68 -11 -100 -29 -144 -77 -41 -46 -55 -100 -39 -159 18
-65 70 -102 226 -158 27 -10 60 -29 73 -42 22 -22 23 -26 9 -46 -12 -18 -25
-22 -79 -25 -56 -2 -72 1 -133 32 -38 19 -70 34 -70 33 -1 -1 -18 -26 -38 -54
l-37 -53 38 -25 c95 -63 239 -89 335 -61 101 29 157 98 157 193 0 98 -42 139
-195 189 -101 33 -125 48 -125 78 0 53 110 59 200 13 l46 -24 32 59 32 58 -33
20 c-71 44 -170 63 -255 49z"/>
<path d="M2590 2649 c-52 -10 -170 -66 -170 -80 0 -14 44 -79 53 -79 4 0 29
11 55 24 131 66 262 29 262 -74 l0 -38 -133 -4 c-120 -3 -138 -6 -189 -31 -45
-22 -61 -36 -77 -71 -61 -125 19 -263 164 -281 74 -10 125 1 189 40 l56 34 0
-35 0 -34 60 0 60 0 0 238 c0 210 -3 242 -19 278 -43 95 -169 141 -311 113z
m200 -388 c0 -61 -30 -102 -95 -126 -89 -34 -195 11 -195 82 0 65 58 92 198
93 l92 0 0 -49z"/>
<path d="M3029 2603 c10 -26 67 -168 125 -314 58 -146 106 -280 106 -298 0
-69 -92 -117 -146 -76 -30 23 -39 18 -67 -34 -26 -46 -26 -49 -9 -64 25 -23
98 -47 141 -47 51 1 114 32 147 74 17 21 94 195 186 418 l156 383 -66 3 c-36
2 -68 -1 -73 -5 -4 -4 -47 -106 -95 -225 -48 -120 -91 -218 -95 -218 -3 0 -46
100 -96 223 l-89 222 -72 3 -72 3 19 -48z"/>
<path d="M6040 2335 l0 -315 90 0 90 0 0 315 0 315 -90 0 -90 0 0 -315z"/>
</g>
</svg>
